<svg version="1.0" xmlns="http://www.w3.org/2000/svg" width="1166" height="998" viewBox="0 0 11660 9980">
  <path d="M5727 9709c-258-73-409-348-338-617 25-96 61-154 146-238l73-71 3-201c5-232 14-213-98-187-68 16-217 38-363 55-52 5-174 20-270 31-316 38-1105 41-1400 5-69-8-188-22-265-31-154-18-276-37-375-60-36-8-119-26-185-40-377-82-742-221-990-378-286-181-568-454-753-729-231-344-404-740-531-1218-74-282-83-327-140-760-31-228-47-552-32-641 29-175 137-303 314-371 45-18 78-21 237-22l185-1 6-540c6-586 7-595 62-653 81-86 134-92 804-92h512l3-547 3-548 25-45c37-65 95-105 173-119 44-8 438-11 1310-11h1247v-514c0-478 1-519 19-575 25-79 59-123 118-152l48-24 599-3c405-2 616 1 652 8 68 14 132 70 165 142l24 53 3 1167 3 1167 582 3c672 4 653 2 731 89 77 85 76 80 76 666v513l63-6c140-13 209-25 345-64 150-42 272-91 272-109 0-6-27-64-59-129-66-132-100-230-133-382-18-89-22-136-22-310 1-181 4-221 28-344 58-298 188-601 354-823 38-52 60-73 76-73 27 0 151 70 258 147 103 73 318 284 390 383 128 175 224 372 278 570 18 63 35 126 39 140 9 29-3 29 361 15 505-19 805 56 1093 274 48 36 48 36 42 80-26 174-166 405-364 601-210 209-403 321-698 405-193 56-318 76-505 82l-168 6-19 51c-91 242-333 756-463 984-290 511-570 886-932 1248-545 545-1204 946-1976 1205l-175 59-3 296-2 296 56 61c103 111 141 234 125 404-14 154-94 283-229 370-106 69-281 91-415 52z" fill="#16624a"/>
  <g fill="#2855a1">
    <path d="M5803 9723c9-2 25-2 35 0 9 3 1 5-18 5s-27-2-17-5zM5903 9723c9-2 25-2 35 0 9 3 1 5-18 5s-27-2-17-5zM6184 8166l-2-660 674-672c449-448 680-686 692-711 16-35 17-120 22-1004 4-837 7-968 20-986 8-11 39-48 68-83 88-104 116-183 115-330 0-147-46-255-149-351-161-149-376-181-566-82-86 45-137 89-183 159-60 89-85 173-85 281 0 146 40 242 146 354 30 30 59 71 67 90 10 27 13 203 12 882l-1 848-409 409c-226 226-414 410-418 410-10 0-7-2461 2-2536 6-42 16-61 57-110 111-129 144-209 144-343 0-141-44-244-152-357l-58-61 7-224 6-224 58-63c105-115 157-259 143-397-26-250-251-454-500-455-72 0-185 32-250 71-124 75-226 225-246 361-23 152 28 295 151 430l71 76 6 174c8 207 4 225-73 311-103 115-138 183-154 295-20 139 25 269 140 401 39 46 73 93 76 104 6 29 11 1537 5 1537-14-1-780-770-794-797-14-28-16-80-16-398v-367l59-64c195-213 202-492 17-691-126-136-309-192-481-148-138 36-261 138-326 269-96 195-59 405 102 569l69 70v527l-187 3c-303 4-417 1-435-9-21-11-118-104-180-172l-48-51v-304l64-67c41-44 78-97 102-146 36-73 39-84 42-183 3-89 0-117-18-171-81-241-322-388-562-340-191 37-349 186-393 371-41 177 6 338 142 476l72 73 3 253c3 232 5 255 23 284 36 57 479 498 521 518 37 18 65 19 499 16l460-2 621 623c342 343 627 633 633 645 8 16 12 254 14 847 2 454 1 823-2 821s-5 45-3 103l3 107-118 22c-137 26-222 38-353 53-52 5-174 20-270 31-316 38-1105 41-1400 5-69-8-188-22-265-31-154-18-276-37-375-60-36-8-119-26-185-40-377-82-742-221-990-378-286-181-568-454-753-729-231-344-404-740-531-1218-74-282-83-327-140-760-31-228-47-552-32-641 29-175 137-303 314-371 45-18 78-21 237-22l185-1 6-540c6-586 7-595 62-653 81-86 134-92 804-92h512l3-548 3-547 25-45c37-65 95-105 173-119 44-8 438-11 1310-11h1247v-514c0-478 1-519 19-575 25-79 59-123 118-152l48-24 599-3c405-2 616 1 652 8 68 14 132 70 165 142l24 53 3 1167 3 1167 582 3c672 4 653 2 731 89 77 85 76 80 76 666v513l63-6c140-13 209-25 345-64 150-42 272-91 272-109 0-6-27-64-59-129-66-132-100-230-133-382-18-89-22-136-22-310 1-181 4-221 28-344 58-298 188-601 354-823 38-52 60-73 76-73 27 0 151 70 258 147 103 73 318 284 390 383 128 175 224 372 278 570 18 63 35 126 39 140 9 29-3 29 361 15 505-19 805 56 1093 274 48 36 48 36 42 80-26 174-166 405-364 601-210 209-403 321-698 405-193 56-318 76-505 82l-168 6-19 51c-91 242-333 756-463 984-290 511-570 886-932 1248-545 545-1204 946-1976 1205l-175 59-5 297c-3 202-5 84-6-361z"/>
    <path d="M5613 8505c0-44 2-61 4-37 2 23 2 59 0 80-2 20-4 1-4-43z"/>
  </g>
  <g fill="#2496ed">
    <path d="M3725 8294c-22-2-119-11-215-19-248-22-513-62-770-117-385-81-788-240-1040-411-46-31-196-150-260-205l-35-31 245 1c256 0 293-2 480-32 348-56 689-172 978-335 65-36 87-55 102-85 27-52 25-63-11-105-47-53-71-49-267 49-306 154-515 223-843 278-118 20-169 22-424 22-371 0-438-11-502-80-65-69-218-321-304-499-69-144-159-365-196-485-112-360-168-629-213-1010-26-222-37-558-21-618 14-52 69-115 125-145l41-22 1126-3 1127-3 3 113c3 92 8 119 24 145 36 57 479 498 521 518 37 18 65 19 499 16l460-2 621 623c342 343 627 633 633 645 8 16 12 252 14 843 2 451 1 820-2 820s-88 14-190 30c-102 17-227 37-277 45-273 44-479 57-939 60-247 2-468 1-490-1zm174-1771c63-20 128-81 136-126 3-18 6-52 8-77l2-45-77-5c-42-3-80-9-85-13-4-5-8-42-7-83 1-48-3-74-10-74-39 1-131 31-160 54-19 14-47 51-62 81-22 45-25 64-21 100 12 88 57 148 137 184 55 25 73 26 139 4zM6180 7759v-251l675-673c450-449 681-687 693-712 16-35 17-109 20-860l3-823h285c353 0 497-18 764-97 177-52 271-97 407-192l72-51-65-92c-109-154-186-329-225-515-31-143-31-405 0-558 22-110 48-210 78-295 24-67 158-341 180-369l20-25 84 60c104 74 258 225 335 329 179 239 272 482 293 762 4 57 10 105 12 108 5 4 155-19 294-46 84-16 500-23 607-10 108 12 234 40 322 71 72 26 223 96 230 108 7 11-100 197-156 271-194 260-492 445-833 520-107 24-374 40-535 34l-116-5-73 183c-364 914-767 1575-1280 2101-461 474-890 776-1491 1050-126 58-571 228-595 228-3 0-5-113-5-251zM8335 6970c71-71 132-130 135-130 2 0-54 59-125 130-71 72-132 130-135 130-2 0 54-58 125-130z"/>
    <path d="M6180 5580V4440h827l7 369c4 203 4 533 0 733l-6 363-407 408c-223 224-409 407-413 407-5 0-8-513-8-1140zM5229 5327c-213-210-394-397-403-414-14-28-16-65-14-250l3-218 403-3 402-2v492c0 271 3 557 7 636 3 83 2 142-3 142s-183-172-395-383zM3657 4681c-23-5-54-23-79-47-65-62-162-164-171-180-7-12 53-14 418-14h425v240h-137c-76 0-201 2-278 5-77 2-157 1-178-4zM9978 4673c12-2 30-2 40 0 9 3-1 5-23 4-22 0-30-2-17-4zM698 4233c12-2 30-2 40 0 9 3-1 5-23 4-22 0-30-2-17-4zM950 3732l5-507 3 499c1 275-1 503-5 507-5 5-6-220-3-499zM1253 4229c-17-5-41-21-52-35-21-26-21-37-21-486 0-296 4-466 10-479 6-10 25-27 43-36 29-17 73-18 517-18 468 0 487 1 540 21l55 21 3 453c1 297-1 466-8 492-9 33-19 43-53 59-39 17-71 19-522 18-264 0-494-5-512-10zm247-530c0-300-1-320-17-315-10 2-32 7-49 11-25 5-33 12-38 37-3 17-6 156-6 309v279h110v-321zm316 244c7-74-2-553-11-561-2-2-23 2-47 10-41 14-43 17-50 64-3 27-7 165-7 307l-1 257h108l8-77zm314-243c0-176-3-320-6-320s-25 5-48 11c-40 10-44 14-50 47-3 21-6 160-6 310v272h110v-320zM2612 4225c-66-29-67-38-67-520 0-469 0-466 58-509 28-21 37-21 520-21 378 0 500 3 529 13 68 24 68 24 68 519 0 397-2 441-18 473-23 47-62 59-194 59l-108 1v-46c0-43 4-51 64-114 41-44 78-97 102-146 36-73 39-84 42-183 3-89 0-117-18-171-81-241-322-388-562-340-191 37-349 186-393 371-41 178 6 338 143 476 65 67 72 78 72 114v39h-102c-67-1-115-6-136-15zM4003 4221c-34-16-44-27-52-58-16-57-15-890 2-922 6-14 28-34 47-45 34-20 49-21 530-21 470 0 497 1 527 19 59 36 58 28 58 517 0 436-1 448-21 475-29 39-75 52-186 53l-98 1v-46c0-42 5-51 59-110 195-213 202-492 17-691-126-136-309-192-481-148-138 36-261 138-326 269-96 195-59 405 102 569 64 65 69 73 69 113v44h-102c-79 0-113-5-145-19zM5380 4222c-19-9-40-28-47-42-10-19-12-134-10-494l2-470 55-19c38-13 85-20 150-21l95-1 3 30c6 51-17 103-75 168-103 115-138 182-154 295-20 139 25 269 140 401 39 46 74 95 77 109 14 68 22 62-94 62-82 0-115-4-142-18zM6184 4224c3-9 6-31 6-49 0-25 11-46 46-87 116-135 154-222 154-357 0-141-44-244-152-357l-58-61v-146l109 5c120 6 165 22 188 69 17 32 18 865 2 922-16 58-64 76-198 77-90 0-102-2-97-16zM6784 4229c-17-5-39-18-50-30-18-20-19-44-22-477-2-333 0-464 9-484 26-63 23-63 569-63 481 0 496 1 530 21 19 11 41 31 47 45 17 32 18 880 2 928-18 50-57 65-186 69l-113 4v-38c0-44 12-65 88-154 88-104 116-183 115-330 0-147-46-255-149-351-161-149-376-181-566-82-86 45-137 89-183 159-60 89-85 173-85 281 0 146 40 242 146 354 51 52 84 110 84 144 0 13-17 15-102 14-57 0-117-5-134-10zM10006 3252c-3-5 8-6 25-4 16 2 29 6 29 8 0 8-49 4-54-4zM2640 2964c-42-15-60-30-77-67-17-38-18-74-18-467 0-380 2-429 17-463 31-67 27-67 573-67 544 0 543 0 571 65 21 52 17 918-5 952-32 48-36 48-556 50-269 1-497-1-505-3zm225-381c7-157 0-461-10-472-2-2-21 1-42 6-36 8-38 11-45 58-8 66-10 570-1 578 3 4 25 7 49 7h42l7-177zm319-6c3-100 3-246 0-324l-7-143-41 7c-23 3-43 7-45 9-8 7-13 390-6 507l7 127h85l7-183zm304 166c20-39 23-109 16-360l-7-263h-37c-65 0-65 0-63 316 1 181 6 291 13 304 14 26 65 27 78 3zM4003 2951c-34-16-44-27-52-58-16-56-14-877 2-923 8-24 23-41 47-53 32-16 74-17 543-15l509 3 28 32c40 44 44 111 37 563-5 400-7 414-56 447-24 17-67 18-521 20-470 3-497 2-537-16zm255-510c-1-176-6-322-10-326s-24-3-45 2l-38 9-3 317-2 317h102l-4-319zm327 182c7-114 0-501-8-509-1-1-23 0-48 3l-47 5-6 46c-8 59-8 350 1 485l6 107h95l7-137zm300 115c15-14 20-533 5-580-10-37-12-38-55-38h-45v642l43-7c23-4 47-11 52-17zM5395 2955c-22-8-41-15-42-15s-9-13-18-30c-13-25-15-95-15-474 0-265 4-455 10-470 5-14 24-35 42-46 32-20 47-20 533-18l500 3 43 28 43 28-3 469-3 468-24 26c-32 35-78 46-183 46h-88v-51c0-48 3-54 59-115 107-117 159-260 145-399-26-250-251-454-500-455-72 0-185 32-250 71-124 75-226 225-246 361-23 152 28 295 151 430 64 68 71 80 71 117v41h-92c-55-1-110-7-133-15zM1513 2953c136-2 358-2 495 0 136 1 24 2-248 2s-384-1-247-2zM7108 2953c28-2 76-2 105 0 28 2 5 3-53 3s-81-1-52-3zM6715 1810c0-630 1-887 2-573 2 315 2 831 0 1145-1 315-2 58-2-572zM5385 1681c-11-5-29-19-40-31-19-21-20-38-23-469-2-284 1-459 7-481 7-23 22-42 43-55 31-19 55-20 468-23 524-4 570-1 613 38l32 28 3 467c2 357 0 471-9 482-7 8-30 23-50 34-36 18-63 19-531 18-271 0-502-4-513-8zm570-358c6-139 1-481-8-489-1-1-26 3-54 8l-53 11v272c0 150 3 286 6 303 5 23 15 34 43 45 20 8 41 15 47 16 8 1 14-51 19-166zm-331 141c14-13 16-56 16-314V852l-51-7c-27-4-52-5-54-3-8 8-10 525-2 581s9 57 42 57c18 0 41-7 49-16zm656-263c0-153-3-299-6-325l-7-46-36 6c-20 3-42 13-48 22-10 12-13 92-13 319v303h110v-279z"/>
  </g>
  <g fill="#67e17f">
    <path d="M5786 9544c-91-28-161-87-208-177-20-36-23-57-23-142 1-88 4-106 27-151 32-61 75-101 157-144l61-33-6-1236-6-1236-662-661c-363-364-673-669-688-679-25-15-73-17-498-19l-471-2-225-225-224-224v-562l-64-42c-73-47-111-88-137-147-57-127-17-310 84-387 77-58 117-72 212-72 106 0 162 22 233 93 66 66 95 137 94 234-2 123-46 201-159 279l-43 30v235c0 183 3 241 14 262 8 15 76 88 153 163 105 103 146 137 172 142 18 4 217 7 442 7h409v-798l-47-27c-62-36-129-100-156-150-19-34-22-56-22-145 0-121 16-162 89-234 72-70 126-91 231-91 78 0 97 4 140 27 62 32 129 99 155 154 26 54 36 154 21 224-16 73-53 124-133 185l-67 50v461l-1 460 43 50c31 35 1059 1064 1102 1103 3 2 5-462 5-1032V4051l-59-40c-83-57-125-110-151-191-28-87-22-153 22-241 26-51 43-71 108-118 66-47 79-61 84-91 3-19 6-159 6-310v-276l-75-52c-106-74-165-175-165-283 0-47 34-142 69-190 34-48 114-106 165-120 66-18 193-7 249 21 91 46 167 155 182 262 16 107-55 239-171 319l-44 30v644l45 28c66 42 131 119 151 180 49 149-4 291-145 387l-51 35v1543c0 848 3 1542 8 1542 10 0 1135-1129 1156-1160 14-22 16-112 16-970v-945l-56-34c-109-65-167-150-180-266-14-121 60-255 178-320 48-27 61-30 148-30 99 0 136 12 211 68 77 56 124 170 117 277-8 114-55 191-159 262l-49 33v976c0 537-3 992-7 1010-5 28-122 150-684 712-554 554-680 685-689 715-6 24-10 292-10 748v710l63 51c39 32 73 69 92 104 28 50 30 62 30 154 0 89-3 105-27 150-46 86-120 145-215 170-70 18-104 18-167-1zM6373 9205c0-22 2-30 4-17 2 12 2 30 0 40-3 9-5-1-4-23z"/>
    <path d="M5520 8868c24-27 45-48 47-48 8 0 0 9-44 50l-48 45 45-47zM6182 8528c-1-163 1-299 6-301 4-3 6 83 4 191-4 371-8 407-10 110zM5613 8480c0-30 2-43 4-27 2 15 2 39 0 55-2 15-4 2-4-28zM3725 8293c-422-34-668-68-985-135-385-81-788-240-1040-411-46-31-196-150-260-205l-35-31 245 1c256 0 293-2 480-32 343-55 694-174 969-330 39-22 75-40 81-40 5 0 22 19 37 43 127 196 379 474 573 629 237 190 555 370 815 463 44 15 84 31 88 35 14 12-230 20-582 18-190-1-364-3-386-5zM1234 7638l-29-33 33 29c17 17 32 31 32 33 0 8-8 1-36-29zM1868 2953c28-2 76-2 105 0 28 2 5 3-53 3s-81-1-52-3z"/>
  </g>
  <g fill="#fdfdfe">
    <path d="M3725 8293c-422-34-668-68-985-135-385-81-788-240-1040-411-46-31-196-150-260-205l-35-31 245 1c256 0 293-2 480-32 343-55 694-174 969-330 39-22 75-40 81-40 5 0 22 19 37 43 127 196 379 474 573 629 239 191 575 381 833 470 37 12 67 26 67 29 0 12-232 19-575 17-192-1-368-3-390-5zM3726 6674c-65-20-112-52-162-106s-63-77-80-143c-25-91-13-211 29-290 23-45 101-119 160-151 48-27 60-29 157-29 93 0 111 3 163 27 79 37 159 120 188 195 16 43 22 80 23 143 0 75-3 93-31 152-62 133-173 207-317 214-55 3-97-1-130-12zm173-151c63-20 128-81 136-126 3-18 6-52 8-77l2-45-77-5c-42-3-80-9-85-13-4-5-8-42-7-83 1-48-3-74-10-74-39 1-131 31-160 54-19 14-47 51-62 81-22 45-25 64-21 100 12 88 57 148 137 184 55 25 73 26 139 4z"/>
  </g>
</svg>
